<svg id="Layer_1" data-name="Layer 1" xmlns="http://www.w3.org/2000/svg" viewBox="0 0 20 20"><defs><style>.cls-1{fill:#fff;}</style></defs><g id="GuiRP2.tif"><path class="cls-1" d="M9.32,0h1.34l.15,0a9.4,9.4,0,0,1,1.75.29,10,10,0,0,1,7.07,7,10.66,10.66,0,0,1,.34,2,5.79,5.79,0,0,1,0,1.44c-.07.48-.11,1-.22,1.43a9.86,9.86,0,0,1-4.54,6.28A10.07,10.07,0,0,1,10.59,20a8.54,8.54,0,0,1-1.75-.06,10,10,0,0,1-8.27-6.6A9.39,9.39,0,0,1,0,10.82a.76.76,0,0,0,0-.16V9.32l0-.11A14.3,14.3,0,0,1,.26,7.75,9.83,9.83,0,0,1,5.5,1.07a9.42,9.42,0,0,1,3.44-1Zm-4,9.32h4V6.67H5.76c-.06,0-.08,0-.09.09-.08.48-.17,1-.24,1.44S5.37,8.94,5.33,9.32Zm4,4V10.67h-4a.27.27,0,0,0,0,.09,15.63,15.63,0,0,0,.31,2.45c0,.08,0,.11.14.11H9.32Zm1.34,0h3.55c.07,0,.09,0,.1-.09a12.84,12.84,0,0,0,.28-1.86c0-.23,0-.47.05-.7h-4Zm4-4a14.68,14.68,0,0,0-.35-2.65H10.67V9.32ZM6.07,14.66a.13.13,0,0,0,0,.06,8.38,8.38,0,0,0,1.39,2.56A3.85,3.85,0,0,0,9,18.47a2.14,2.14,0,0,0,.27.09v-3.9ZM10.66,1.4V5.32h3.25a.64.64,0,0,0,0-.07,9,9,0,0,0-1-2.09A4.61,4.61,0,0,0,11.34,1.7C11.13,1.59,10.9,1.5,10.66,1.4Zm0,17.16a1.39,1.39,0,0,0,.19-.06,3.75,3.75,0,0,0,1.62-1.19,8.14,8.14,0,0,0,1.42-2.6.07.07,0,0,0,0-.05H10.67ZM9.32,1.43H9.27L9,1.51A4,4,0,0,0,7.48,2.69a8.24,8.24,0,0,0-1.4,2.59s0,0,0,0H9.32Zm-5,5.24H2.07C2,6.66,2,6.7,2,6.75a8.71,8.71,0,0,0-.55,2.06c0,.17,0,.34,0,.51H4A15.61,15.61,0,0,1,4.34,6.67Zm-.33,4H1.36c0,.06,0,.1,0,.15A8.6,8.6,0,0,0,2,13.22c0,.08.07.11.15.1H4.34A15.87,15.87,0,0,1,4,10.67ZM16,9.32h2.64a.56.56,0,0,0,0-.13A8.6,8.6,0,0,0,18,6.74a.12.12,0,0,0-.12-.08H15.64A15.87,15.87,0,0,1,16,9.32Zm-.33,4h2.24a.13.13,0,0,0,.15-.1,9,9,0,0,0,.54-2.05c0-.17,0-.33.05-.51H16A15,15,0,0,1,15.64,13.32ZM6.22,2.22A8.54,8.54,0,0,0,2.69,5.33H4.55c.11,0,.15,0,.18-.13A10.61,10.61,0,0,1,6.11,2.37ZM17.29,14.66H15.45a.17.17,0,0,0-.2.14,10.26,10.26,0,0,1-1.47,2.94s0,0,0,.07A8.87,8.87,0,0,0,17.29,14.66ZM6.22,17.77l0,0a10.64,10.64,0,0,1-1.48-3,.13.13,0,0,0-.14-.11H2.7A8.53,8.53,0,0,0,6.22,17.77ZM17.29,5.32a8.77,8.77,0,0,0-3.54-3.13s0,0,0,.05a10.29,10.29,0,0,1,1.5,3,.11.11,0,0,0,.12.09h1.9Z"/></g></svg>